<svg width="63" height="21" viewBox="0 0 63 21" fill="none" xmlns="http://www.w3.org/2000/svg">
<path d="M4.12209 18.466C4.12209 19.6273 3.51543 20.208 2.30209 20.208C1.71276 20.208 1.24476 20.0607 0.898093 19.766C0.551427 19.4713 0.378093 19.038 0.378093 18.466V7.728C0.378093 5.68267 0.811427 4.14 1.67809 3.1C2.56209 2.04267 3.86209 1.514 5.57809 1.514C6.84343 1.514 7.89209 1.774 8.72409 2.294C9.55609 2.814 10.1108 3.55933 10.3881 4.53C10.6654 3.55933 11.2201 2.814 12.0521 2.294C12.8841 1.774 13.9501 1.514 15.2501 1.514C17.0181 1.514 18.3268 2.02533 19.1761 3.048C20.0254 4.05333 20.4501 5.61333 20.4501 7.728V18.206C20.4501 18.9167 20.3114 19.428 20.0341 19.74C19.7568 20.052 19.2888 20.208 18.6301 20.208C17.9714 20.208 17.4861 20.052 17.1741 19.74C16.8621 19.4107 16.7061 18.8993 16.7061 18.206V7.52C16.7061 5.804 15.9694 4.946 14.4961 4.946C13.7508 4.946 13.1961 5.19733 12.8321 5.7C12.4681 6.18533 12.2861 6.96533 12.2861 8.04V17.946C12.2861 18.6567 12.1474 19.168 11.8701 19.48C11.5928 19.792 11.1248 19.948 10.4661 19.948C9.80743 19.948 9.32209 19.792 9.01009 19.48C8.69809 19.1507 8.54209 18.6393 8.54209 17.946V8.04C8.54209 5.97733 7.80543 4.946 6.33209 4.946C4.85876 4.946 4.12209 5.804 4.12209 7.52V18.466ZM25.2962 4.556C24.6549 4.556 24.1176 4.348 23.6842 3.932C23.2509 3.516 23.0342 3.00467 23.0342 2.398C23.0342 1.75667 23.2509 1.228 23.6842 0.811999C24.1176 0.395999 24.6549 0.187999 25.2962 0.187999C25.9549 0.187999 26.4922 0.395999 26.9082 0.811999C27.3416 1.228 27.5582 1.75667 27.5582 2.398C27.5582 3.00467 27.3416 3.516 26.9082 3.932C26.4922 4.348 25.9549 4.556 25.2962 4.556ZM27.1682 18.466C27.1682 19.6273 26.5616 20.208 25.3482 20.208C24.7589 20.208 24.2909 20.0693 23.9442 19.792C23.5976 19.4973 23.4242 19.0553 23.4242 18.466V8.56C23.4242 8.00533 23.5629 7.572 23.8402 7.26C24.1349 6.948 24.6202 6.792 25.2962 6.792C25.9722 6.792 26.4489 6.948 26.7262 7.26C27.0209 7.572 27.1682 8.00533 27.1682 8.56V18.466ZM31.5604 20.208C30.3124 20.208 29.6884 19.6187 29.6884 18.44V12.2C29.6884 10.432 30.1044 9.08867 30.9364 8.17C31.7858 7.25133 32.9991 6.792 34.5764 6.792C36.7258 6.792 38.1818 7.56333 38.9444 9.106C39.7071 7.56333 41.1631 6.792 43.3124 6.792C44.8898 6.792 46.0944 7.25133 46.9264 8.17C47.7758 9.08867 48.2004 10.432 48.2004 12.2V18.44C48.2004 19.6187 47.5764 20.208 46.3284 20.208C45.0804 20.208 44.4564 19.6187 44.4564 18.44V12.408C44.4564 11.524 44.3091 10.8913 44.0144 10.51C43.7198 10.1113 43.2604 9.912 42.6364 9.912C41.3884 9.912 40.7644 10.744 40.7644 12.408V18.336C40.7644 19.5147 40.1578 20.104 38.9444 20.104C37.7311 20.104 37.1244 19.5147 37.1244 18.336V12.408C37.1244 10.744 36.5004 9.912 35.2524 9.912C34.0391 9.912 33.4324 10.744 33.4324 12.408V18.44C33.4324 19.6187 32.8084 20.208 31.5604 20.208ZM56.442 20.208C54.5873 20.208 53.1227 19.6793 52.048 18.622C50.9733 17.5647 50.436 15.8573 50.436 13.5C50.436 11.1253 50.9733 9.418 52.048 8.378C53.1227 7.32067 54.5873 6.792 56.442 6.792C58.2967 6.792 59.7614 7.32067 60.836 8.378C61.9107 9.418 62.448 11.1253 62.448 13.5C62.448 15.8573 61.9107 17.5647 60.836 18.622C59.7614 19.6793 58.2967 20.208 56.442 20.208ZM56.442 17.088C56.9273 17.088 57.3347 16.9927 57.664 16.802C57.9934 16.594 58.2447 16.23 58.418 15.71C58.6087 15.19 58.704 14.4533 58.704 13.5C58.704 12.5467 58.6087 11.81 58.418 11.29C58.2447 10.77 57.9934 10.4147 57.664 10.224C57.3347 10.016 56.9273 9.912 56.442 9.912C55.974 9.912 55.5667 10.016 55.22 10.224C54.8907 10.4147 54.6307 10.77 54.44 11.29C54.2667 11.81 54.18 12.5467 54.18 13.5C54.18 14.4533 54.2667 15.19 54.44 15.71C54.6307 16.23 54.8907 16.594 55.22 16.802C55.5667 16.9927 55.974 17.088 56.442 17.088Z" fill="white"/>
</svg>
