<svg width="16" height="17" viewBox="0 0 16 17" fill="none" xmlns="http://www.w3.org/2000/svg">
<path d="M8.00067 2.29102C4.31732 2.29102 1.33398 5.27435 1.33398 8.95768C1.33398 11.9077 3.24232 14.3993 5.89232 15.2827C6.22565 15.341 6.35065 15.141 6.35065 14.966C6.35065 14.8077 6.34232 14.2827 6.34232 13.7243C4.66732 14.0327 4.23398 13.316 4.10065 12.941C4.02565 12.7493 3.70065 12.1577 3.41732 11.9993C3.18398 11.8743 2.85065 11.566 3.40898 11.5577C3.93398 11.5493 4.30898 12.041 4.43398 12.241C5.03398 13.2493 5.99232 12.966 6.37565 12.791C6.43398 12.3577 6.60898 12.066 6.80066 11.8993C5.31732 11.7327 3.76732 11.1577 3.76732 8.60768C3.76732 7.88268 4.02565 7.28268 4.45065 6.81602C4.38398 6.64935 4.15065 5.96602 4.51732 5.04935C4.51732 5.04935 5.07565 4.87435 6.35065 5.73268C6.884 5.58268 7.45066 5.50768 8.01733 5.50768C8.584 5.50768 9.15066 5.58268 9.684 5.73268C10.959 4.86602 11.5173 5.04935 11.5173 5.04935C11.884 5.96602 11.6507 6.64935 11.584 6.81602C12.009 7.28268 12.2673 7.87435 12.2673 8.60768C12.2673 11.166 10.709 11.7327 9.22567 11.8993C9.46733 12.1077 9.67566 12.5077 9.67566 13.1327C9.67566 14.0244 9.66733 14.741 9.66733 14.966C9.66733 15.141 9.79233 15.3493 10.1257 15.2827C12.8393 14.3665 14.6666 11.8219 14.6673 8.95768C14.6673 5.27435 11.684 2.29102 8.00067 2.29102Z" fill="white" fill-opacity="0.45"/>
</svg>
