<svg width="29" height="28" viewBox="0 0 29 28" fill="none" xmlns="http://www.w3.org/2000/svg">
<path d="M14.4999 25.6666C8.05659 25.6666 2.83325 20.4432 2.83325 13.9999C2.83325 7.55659 8.05659 2.33325 14.4999 2.33325C20.9432 2.33325 26.1666 7.55659 26.1666 13.9999C26.1666 20.4432 20.9432 25.6666 14.4999 25.6666ZM13.3333 17.4999V19.8333H15.6666V17.4999H13.3333ZM15.6666 15.5809C17.3532 15.0789 18.5833 13.5163 18.5833 11.6666C18.5833 9.41142 16.7551 7.58325 14.4999 7.58325C12.5189 7.58325 10.8674 8.99397 10.4951 10.8656L12.7835 11.3233C12.9431 10.5212 13.6509 9.91659 14.4999 9.91659C15.4664 9.91659 16.2499 10.7001 16.2499 11.6666C16.2499 12.6331 15.4664 13.4166 14.4999 13.4166C13.8556 13.4166 13.3333 13.9389 13.3333 14.5833V16.3333H15.6666V15.5809Z" fill="#737373"/>
</svg>
