<svg width="28" height="28" viewBox="0 0 28 28" fill="none" xmlns="http://www.w3.org/2000/svg">
<path d="M14 14.6834L18.9497 19.6331L17.2998 21.283L15.1666 19.1508V25.6666H12.8333V19.1484L10.7001 21.283L9.05021 19.6331L14 14.6834ZM14 2.33325C18.1923 2.33325 21.6468 5.49213 22.1131 9.55953C24.8334 10.3034 26.8333 12.7931 26.8333 15.7499C26.8333 19.0969 24.2708 21.8453 21.0007 22.1405L21 19.8333C21 15.9673 17.8659 12.8333 14 12.8333C10.2218 12.8333 7.14279 15.8265 7.00479 19.5709L6.99996 19.8333L7.00041 22.1405C3.72975 21.846 1.16663 19.0973 1.16663 15.7499C1.16663 12.7931 3.16657 10.3034 5.88752 9.55971C6.35317 5.49213 9.80767 2.33325 14 2.33325Z" fill="#737373"/>
</svg>

