<svg width="16" height="17" viewBox="0 0 16 17" fill="none" xmlns="http://www.w3.org/2000/svg">
<path d="M8.16264 3.62402C8.51871 3.62598 9.40957 3.6346 10.3561 3.67251L10.6917 3.68714C11.6447 3.73226 12.5969 3.80934 13.0692 3.94102C13.6991 4.11799 14.1942 4.63436 14.3616 5.2889C14.628 6.3283 14.6614 8.35696 14.6655 8.84789L14.6661 8.94962V8.95676C14.6661 8.95676 14.6661 8.95922 14.6661 8.96396L14.6655 9.06569C14.6614 9.55662 14.628 11.5853 14.3616 12.6247C14.1919 13.2816 13.6968 13.798 13.0692 13.9726C12.5969 14.1042 11.6447 14.1813 10.6917 14.2264L10.3561 14.241C9.40957 14.279 8.51871 14.2876 8.16264 14.2896L8.00637 14.2901H7.99944C7.99944 14.2901 7.99711 14.2901 7.99251 14.2901L7.83637 14.2896C7.08277 14.2854 3.93185 14.2514 2.92971 13.9726C2.29977 13.7956 1.80465 13.2792 1.63729 12.6247C1.37084 11.5853 1.33753 9.55662 1.33337 9.06569V8.84789C1.33753 8.35696 1.37084 6.3283 1.63729 5.2889C1.80697 4.63193 2.30209 4.11557 2.92971 3.94102C3.93185 3.66218 7.08277 3.62817 7.83637 3.62402H8.16264ZM6.66611 6.62345V11.2901L10.6661 8.95676L6.66611 6.62345Z" fill="white" fill-opacity="0.45"/>
</svg>

